<svg xmlns="http://www.w3.org/2000/svg" viewBox="0 0 64 64" fill="none">
  <title>Bill Raymond Monogram</title>
  <rect width="64" height="64" rx="18" fill="#19142A"/>
  <circle cx="49" cy="16" r="10" fill="#8CCF7A"/>
  <path d="M17 15h16c6.8 0 11 3.8 11 9.2 0 3.7-2.1 6.5-5.7 7.7 4.4 1 7.1 4.2 7.1 8.6 0 5.8-4.4 10.5-12.1 10.5H17V15Zm8 7v8h7.4c2.4 0 3.9-1.5 3.9-4s-1.4-4-4.1-4H25Zm0 15v8h8.3c2.7 0 4.4-1.5 4.4-4s-1.6-4-4.4-4H25Z" fill="#FFF7EC"/>
  <path d="M45 47 54 56" stroke="#2F9E5F" stroke-width="5" stroke-linecap="round"/>
</svg>
